<?xml version="1.0" standalone="no"?><!DOCTYPE svg PUBLIC "-//W3C//DTD SVG 1.1//EN" "http://www.w3.org/Graphics/SVG/1.1/DTD/svg11.dtd"><svg t="1546420310537" class="icon" style="" viewBox="0 0 1024 1024" version="1.1" xmlns="http://www.w3.org/2000/svg" p-id="14490" xmlns:xlink="http://www.w3.org/1999/xlink" width="100" height="100"><defs><style type="text/css"></style></defs><path d="M948.532017 659.315153C802.658078 870.832064 561.966179 958.357028 306.687286 892.714055c-29.174988-7.293997-36.468985-29.174988-21.880991-109.405954 0-43.761982 7.292997-87.523963-14.587993-116.698951-29.173988-21.880991-65.642972-29.174988-102.110958-29.174988-51.055979-7.292997-80.229966-14.586994-94.81796-58.349975-14.587994-36.467985 0-313.627868 240.691899-437.619816C576.553173 10.176426 773.48309 97.700389 868.30005 156.050364c14.586994 14.586994 36.468985 7.292997 51.055979-7.293996 14.586994-14.586994 7.293997-36.467985-7.293997-51.055979-87.523963-58.349975-320.921865-175.047926-634.549734-21.879991C-6.942582 221.693337-14.236579 542.615202 7.645412 600.965178 36.8204 688.490141 117.050366 695.784138 160.813347 703.078135c21.880991 0 43.761982 7.292997 51.055979 7.292997v51.055978c-7.293997 58.349975-21.880991 160.460933 80.229966 189.635921 65.643972 14.586994 131.286945 29.174988 189.635921 29.174987 211.517911 0 401.152832-102.111957 532.439776-284.45388 7.293997-14.586994 0-36.468985-14.586994-51.055979-14.587994-7.293997-36.468985-7.293997-51.055978 14.586994m-590.789752-299.039874c0 43.760982 29.174988 72.935969 72.937969 72.935969s72.936969-29.174988 72.93697-72.936969-29.174988-72.936969-72.93697-72.93697-72.936969 29.174988-72.936969 72.93697M211.869326 506.148217c0 43.761982 29.174988 72.936969 72.936969 72.93697s72.936969-29.174988 72.93697-72.93697-29.174988-72.936969-72.93697-72.936969-72.936969 29.174988-72.936969 72.936969m510.557786-218.809908c0-43.762982-29.173988-72.937969-72.93697-72.937969s-72.936969 29.174988-72.936969 72.936969 29.174988 72.936969 72.936969 72.93697 72.936969-36.467985 72.93697-72.93697M518.204197 783.308101c14.586994 7.293997 65.642972-14.586994 80.229967-29.174988l408.446828-415.739825c14.587994-14.586994 14.587994-36.467985 0-51.055979-14.586994-14.586994-36.467985-14.586994-51.055978 0L547.380185 703.077135c-14.587994 14.587994-29.174988 72.936969-29.174988 80.230966" p-id="14491"></path></svg>