<?xml version="1.0" standalone="no"?><!DOCTYPE svg PUBLIC "-//W3C//DTD SVG 1.1//EN" "http://www.w3.org/Graphics/SVG/1.1/DTD/svg11.dtd"><svg t="1546419699289" class="icon" style="" viewBox="0 0 1024 1024" version="1.1" xmlns="http://www.w3.org/2000/svg" p-id="6983" xmlns:xlink="http://www.w3.org/1999/xlink" width="48" height="48"><defs><style type="text/css"></style></defs><path d="M901.76 0H122.24A122.368 122.368 0 0 0 0 122.24v779.52A122.368 122.368 0 0 0 122.24 1024h779.52A122.368 122.368 0 0 0 1024 901.76V122.24A122.368 122.368 0 0 0 901.76 0zM981.333333 901.76A79.701333 79.701333 0 0 1 901.76 981.333333H122.24A79.701333 79.701333 0 0 1 42.666667 901.76V122.24C42.666667 78.378667 78.378667 42.666667 122.24 42.666667h779.52C945.621333 42.666667 981.333333 78.378667 981.333333 122.24v779.52z" p-id="6984"></path><path d="M788.693333 213.333333H235.306667a21.333333 21.333333 0 0 0 0 42.666667h553.429333a21.333333 21.333333 0 1 0-0.042667-42.666667zM788.693333 384H235.306667a21.333333 21.333333 0 0 0 0 42.666667h553.429333a21.333333 21.333333 0 1 0-0.042667-42.666667zM788.693333 554.666667H235.306667a21.333333 21.333333 0 0 0 0 42.666666h553.429333a21.333333 21.333333 0 1 0-0.042667-42.666666zM788.693333 725.333333H235.306667a21.333333 21.333333 0 0 0 0 42.666667h553.429333a21.333333 21.333333 0 1 0-0.042667-42.666667z" p-id="6985"></path></svg>
