<?xml version="1.0" standalone="no"?><!DOCTYPE svg PUBLIC "-//W3C//DTD SVG 1.1//EN" "http://www.w3.org/Graphics/SVG/1.1/DTD/svg11.dtd"><svg t="1546419631956" class="icon" style="" viewBox="0 0 1171 1024" version="1.1" xmlns="http://www.w3.org/2000/svg" p-id="5530" xmlns:xlink="http://www.w3.org/1999/xlink" width="54.890625" height="48"><defs><style type="text/css"></style></defs><path d="M162.872992 1019.441037C439.265609 1020.71218 715.740589 1019.811725 992.056837 1019.884698 1078.617649 1019.959125 1133.971346 982.151729 1150.840259 896.97052 1161.499197 658.459631 1164.335389 419.948744 1149.231984 181.512287 1132.057588 121.956806 1094.411386 84.222378 1030.084893 74.582995 1029.704538 96.405508 1029.394564 118.147754 1029.09058 139.965889 1070.64516 166.63947 1084.444275 203.552252 1083.828819 252.197205 1081.606585 448.493288 1081.530214 644.857958 1083.524835 841.154038 1084.444275 919.909478 1048.948429 951.669094 969.284927 951.219597 707.685739 949.423067 446.167415 949.423067 184.568226 951.219597 104.600741 951.817955 69.795223 919.762078 70.638295 841.154038 72.709285 644.857958 72.550554 448.493288 70.404691 252.197205 69.795223 203.552252 83.517969 166.565041 125.072549 139.965889 125.301661 118.147754 125.611636 96.405508 125.91562 74.657425 39.50755 92.295818-0.052411 145.119055 0.098833 230.004004 0.561548 440.797833-0.742741 651.733226 0.71429 862.451166 1.40462 963.09917 58.98055 1018.99008 162.872992 1019.441037L162.872992 1019.441037Z" p-id="5531"></path><path d="M496.461185 140.262148C523.451448 141.458862 551.662141 145.421152 577.271742 139.514932 624.500207 128.683213 710.757035 173.663596 711.212264 103.127537 711.751351 40.959717 625.653253 86.691695 588.468268 70.997232 554.119475 70.997232 527.130712 70.250016 500.140451 71.144632 473.922879 72.193946 439.265609 67.189639 437.347362 104.022153 435.357233 141.909819 469.858767 139.218672 496.461185 140.262148L496.461185 140.262148Z" p-id="5532"></path><path d="M830.664836 776.147673C883.414445 774.351143 904.578082 763.069928 903.654146 707.475276 902.736201 653.226199 893.079067 620.948495 830.056867 634.920858 774.00685 624.01033 755.990882 645.603716 755.990882 700.22932 755.83814 755.373015 768.484208 778.313433 830.664836 776.147673L830.664836 776.147673Z" p-id="5533"></path><path d="M573.896463 772.858168C632.782672 785.035461 652.104428 761.649922 650.951383 703.067867 649.957069 651.509936 637.918969 631.335092 580.798267 631.78605 524.141778 632.15674 500.293191 644.185173 503.211747 704.78413 505.586722 754.996487 514.096798 785.11427 573.896463 772.858168L573.896463 772.858168Z" p-id="5534"></path><path d="M320.123012 775.918546C374.635135 774.574431 409.900373 767.254045 393.955394 700.37818 409.900373 647.400246 383.374324 632.829525 328.785832 632.08231 273.047289 631.187692 247.437687 642.46891 250.426622 704.111343 252.726723 754.552827 262.003502 777.338548 320.123012 775.918546L320.123012 775.918546Z" p-id="5535"></path><path d="M830.664836 529.861064C883.414445 528.070373 904.501711 516.789155 903.654146 461.194506 902.736201 407.019859 893.079067 374.667722 830.056867 388.714516 774.00685 377.80253 756.065753 399.397376 755.990882 454.02298 755.83814 509.092245 768.484208 532.107093 830.664836 529.861064L830.664836 529.861064Z" p-id="5536"></path><path d="M503.129385 460.972676C502.901772 516.26377 522.684745 528.892019 575.967451 529.712206 635.847977 530.687088 660.457275 512.37591 647.809707 454.770196 660.228162 396.935356 630.250462 387.665203 578.266056 385.499443 516.396902 382.808296 503.364486 405.526884 503.129385 460.972676Z" p-id="5537"></path><path d="M323.955017 529.786636C374.558764 527.022519 400.395981 520.147251 398.172248 462.465648 396.102756 410.907719 391.960773 373.47101 326.253624 388.640085 271.970611 378.704443 249.508676 396.034901 250.655732 452.751835 251.807281 505.278813 259.090939 533.452666 323.955017 529.786636L323.955017 529.786636Z" p-id="5538"></path><path d="M794.480155 145.570011C796.392414 171.200117 780.14345 209.532902 828.062247 211.396565 876.671373 213.340495 862.947131 175.309807 865.398477 149.006915 866.855507 134.738293 865.702461 120.166114 865.702461 105.742794 865.62609 91.393904 866.779136 76.823185 865.398477 62.554563 863.023501 36.102811 875.290712-1.106231 827.061943 0.608573 785.658604 2.103005 795.550842 35.133764 794.17018 59.04177 792.636779 87.882571 792.18155 116.87661 794.480155 145.570011L794.480155 145.570011Z" p-id="5539"></path><path d="M288.992268 146.093939C290.912015 171.798474 275.118277 210.056829 323.111948 211.476832 371.646201 212.969805 357.307997 174.78588 359.986959 148.555958 361.52036 134.287336 360.296933 119.789587 360.296933 105.293297 360.296933 90.950245 361.292744 76.452496 360.06333 62.103606 357.841093 35.504454 369.416477-1.557187 321.270067 0.683002 280.019473 2.626933 290.372927 35.726284 288.917394 59.641586 287.231252 88.333528 286.846403 117.401997 288.992268 146.093939L288.992268 146.093939Z" p-id="5540"></path><path d="M163.176977 138.620315C190.622467 142.206078 217.687601 143.402792 217.383617 105.669824 217.156002 68.682613 191.774015 67.558869 163.253347 73.237422 150.834892 73.688379 138.334076 74.212306 125.91562 74.657425 125.611636 96.405508 125.301661 118.147754 125.072549 139.965889 137.800979 139.514932 150.448546 139.069813 163.176977 138.620315L163.176977 138.620315Z" p-id="5541"></path><path d="M990.828919 73.237422C962.230382 67.558869 936.855881 68.757042 936.855881 105.891654 936.779513 143.180962 962.616727 143.853749 990.905288 138.694745 1003.708592 139.069813 1016.36215 139.589362 1029.09058 140.038859 1029.394564 118.222184 1029.704538 96.479938 1030.084893 74.657425 1016.976108 74.137876 1003.867324 73.688379 990.828919 73.237422L990.828919 73.237422Z" p-id="5542"></path></svg>
