<?xml version="1.0" standalone="no"?><!DOCTYPE svg PUBLIC "-//W3C//DTD SVG 1.1//EN" "http://www.w3.org/Graphics/SVG/1.1/DTD/svg11.dtd"><svg t="1546419735074" class="icon" style="" viewBox="0 0 1024 1024" version="1.1" xmlns="http://www.w3.org/2000/svg" p-id="7912" xmlns:xlink="http://www.w3.org/1999/xlink" width="48" height="48"><defs><style type="text/css"></style></defs><path d="M1013.672852 719.902588c6.861318 7.876921 10.291977 17.065329 10.291977 27.565225v236.331617c0 11.379552-3.430659 20.791872-10.291977 28.228965-6.861318 7.437093-15.250039 11.155639-25.158165 11.155639H782.651159c-9.156421 0-17.161292-3.718546-24.022609-11.155639-6.861318-7.437093-10.291977-16.849414-10.291977-28.228965V747.467813c0-6.997265 1.519406-13.562698 4.574212-19.688304 3.054806-6.125605 7.245168-10.939724 12.579083-14.442355a30.707996 30.707996 0 0 1 17.161291-5.253946h77.7696V551.840284a30.707996 30.707996 0 0 0-3.438656-14.442354 28.540843 28.540843 0 0 0-9.140427-10.499896 21.703516 21.703516 0 0 0-12.579083-3.934462h-291.645995v185.119636h77.7696c9.148424 0 17.153295 3.934462 24.02261 11.81938 6.861318 7.876921 10.291977 17.065329 10.291976 27.565225v236.331617c0 7.005262-1.527403 13.562698-4.582208 19.696301-3.038812 6.125605-7.237171 10.939724-12.579083 14.442354a30.707996 30.707996 0 0 1-17.153295 5.245949H415.522671a30.707996 30.707996 0 0 1-17.153295-5.245949c-5.341912-3.502631-9.724199-8.316749-13.154858-14.442354a39.664495 39.664495 0 0 1-5.149987-19.696301V747.467813c0-10.499896 3.438656-19.688304 10.299974-27.565225 6.861318-7.884918 15.250039-11.81938 25.158166-11.81938h76.626046v-185.127633h-303.081524c-7.621021 0-13.914561 2.846887-18.864626 8.540662-4.958062 5.685777-7.437093 12.475123-7.437093 20.344047v156.242924h77.777597c9.908127 0 18.104923 3.934462 24.58239 11.81938 6.477468 7.876921 9.724199 17.065329 9.724199 27.565225v236.331617c0 11.379552-3.238734 20.791872-9.724199 28.228965-6.477468 7.437093-14.674264 11.155639-24.58239 11.155639H34.671547c-3.806512 0-7.437093-0.655744-10.859755-1.967231a32.787183 32.787183 0 0 1-9.148424-5.253946 37.249439 37.249439 0 0 1-7.437093-8.532664 41.471789 41.471789 0 0 1-5.14199-11.15564 44.510601 44.510601 0 0 1-1.719328-12.475123V747.467813c0-3.494634 0.38385-6.997265 1.143553-10.499896a31.587652 31.587652 0 0 1 3.430659-9.196405c1.519406-2.622975 3.430659-5.245949 5.717765-7.868924 2.287106-2.630972 4.574212-4.814118 6.861318-6.565434 2.287106-1.759312 4.958062-3.062803 8.004871-3.942458 3.054806-0.879656 6.101615-1.311487 9.148424-1.311488h77.777596V492.759379c0-7.876921 2.479031-14.65827 7.437093-20.344048 4.950065-5.693774 10.859755-8.540661 17.721073-8.540661h354.541408V316.836148h-76.626046c-9.916124 0-18.296848-3.934462-25.158166-11.811383a40.704089 40.704089 0 0 1-10.291977-27.573222V41.103932c0-11.379552 3.430659-21.007788 10.291977-28.884709 6.861318-7.876921 15.250039-11.811383 25.158166-11.811382h205.863527c6.101615 0 11.81938 1.967231 17.153295 5.909689a41.343839 41.343839 0 0 1 12.579083 15.098099c3.054806 6.125605 4.582209 12.691039 4.582208 19.688303v236.331618c0 10.499896-3.438656 19.696301-10.291976 27.573221-6.869315 7.876921-14.874186 11.811383-24.02261 11.811383h-77.7696v147.054516h341.962326c7.629018 0 13.914561 2.83889 18.872623 8.532665 4.958062 5.685777 7.437093 12.475123 7.437093 20.352044v215.315832h76.626047c9.908127 0 18.296848 3.934462 25.158165 11.81938z" p-id="7913"></path></svg>
