<?xml version="1.0" standalone="no"?><!DOCTYPE svg PUBLIC "-//W3C//DTD SVG 1.1//EN" "http://www.w3.org/Graphics/SVG/1.1/DTD/svg11.dtd"><svg t="1547027584789" class="icon" style="" viewBox="0 0 1024 1024" version="1.1" xmlns="http://www.w3.org/2000/svg" p-id="775" xmlns:xlink="http://www.w3.org/1999/xlink" width="100" height="100"><defs><style type="text/css"></style></defs><path d="M950.857143 932.571429l0-621.714286q0-7.460571-5.412571-12.873143t-12.873143-5.412571l-621.714286 0q-7.460571 0-12.873143 5.412571t-5.412571 12.873143l0 621.714286q0 7.460571 5.412571 12.873143t12.873143 5.412571l621.714286 0q7.460571 0 12.873143-5.412571t5.412571-12.873143zM1024 310.857143l0 621.714286q0 37.741714-26.843429 64.585143t-64.585143 26.843429l-621.714286 0q-37.741714 0-64.585143-26.843429t-26.843429-64.585143l0-621.714286q0-37.741714 26.843429-64.585143t64.585143-26.843429l621.714286 0q37.741714 0 64.585143 26.843429t26.843429 64.585143zM804.571429 91.428571l0 91.428571-73.142857 0 0-91.428571q0-7.460571-5.412571-12.873143t-12.873143-5.412571l-621.714286 0q-7.460571 0-12.873143 5.412571t-5.412571 12.873143l0 621.714286q0 7.460571 5.412571 12.873143t12.873143 5.412571l91.428571 0 0 73.142857-91.428571 0q-37.741714 0-64.585143-26.843429t-26.843429-64.585143l0-621.714286q0-37.741714 26.843429-64.585143t64.585143-26.843429l621.714286 0q37.741714 0 64.585143 26.843429t26.843429 64.585143z" p-id="776"></path></svg>