<?xml version="1.0" standalone="no"?><!DOCTYPE svg PUBLIC "-//W3C//DTD SVG 1.1//EN" "http://www.w3.org/Graphics/SVG/1.1/DTD/svg11.dtd"><svg t="1547027621462" class="icon" style="" viewBox="0 0 1024 1024" version="1.1" xmlns="http://www.w3.org/2000/svg" p-id="899" xmlns:xlink="http://www.w3.org/1999/xlink" width="100" height="100"><defs><style type="text/css"></style></defs><path d="M328.691358 164.345679 44.328674 164.345679C19.7679 164.345679 0 184.155697 0 208.592593 0 232.979764 19.846623 252.839506 44.328674 252.839506L979.671326 252.839506C1004.2321 252.839506 1024 233.029488 1024 208.592593 1024 184.205421 1004.153377 164.345679 979.671326 164.345679L695.308642 164.345679 695.308642 37.836242C695.308642 16.939862 678.361206 0 657.455004 0L366.544996 0C345.639009 0 328.691358 17.008214 328.691358 37.836242L328.691358 164.345679 328.691358 164.345679 328.691358 164.345679ZM417.185185 164.345679 606.814815 164.345679 606.814815 88.493827 417.185185 88.493827 417.185185 164.345679 417.185185 164.345679ZM805.57816 929.207945 243.146666 929.516885 195.809704 337.804853C193.860977 313.445783 172.534295 295.278608 148.175223 297.227334 123.816153 299.17606 105.648979 320.502742 107.597704 344.861814L158.394444 979.821059C160.067114 1000.729429 178.329538 1017.679012 199.245715 1017.679012L850.861382 1017.679012C871.750246 1017.679012 889.703429 1000.688827 890.95846 979.771631L929.105756 343.983382C930.569337 319.590354 911.981348 298.629431 887.58832 297.165849 863.195293 295.702268 842.234369 314.290257 840.770788 338.683285L805.57816 929.207945 805.57816 929.207945ZM353.975309 347.753371C353.975309 323.261771 373.83505 303.407407 398.222222 303.407407 422.659118 303.407407 442.469136 323.20453 442.469136 347.753371L442.469136 815.308358C442.469136 839.799957 422.609394 859.654321 398.222222 859.654321 373.785327 859.654321 353.975309 839.857199 353.975309 815.308358L353.975309 347.753371 353.975309 347.753371ZM606.814815 347.753371C606.814815 323.261771 626.674557 303.407407 651.061728 303.407407 675.498624 303.407407 695.308642 323.20453 695.308642 347.753371L695.308642 815.308358C695.308642 839.799957 675.4489 859.654321 651.061728 859.654321 626.624833 859.654321 606.814815 839.857199 606.814815 815.308358L606.814815 347.753371 606.814815 347.753371Z" p-id="900"></path></svg>