<?xml version="1.0" standalone="no"?><!DOCTYPE svg PUBLIC "-//W3C//DTD SVG 1.1//EN" "http://www.w3.org/Graphics/SVG/1.1/DTD/svg11.dtd"><svg t="1546418877520" class="icon" style="" viewBox="0 0 1024 1024" version="1.1" xmlns="http://www.w3.org/2000/svg" p-id="1091" xmlns:xlink="http://www.w3.org/1999/xlink" width="200" height="200"><defs><style type="text/css"></style></defs><path d="M896 128.426667l-768 0c-47.146667 0-85.333333 38.186667-85.333333 85.333333l0 170.24 85.333333 0 0-171.093333 768 0 0 598.613333-768 0 0-171.52-85.333333 0 0 171.093333c0 47.146667 38.186667 84.48 85.333333 84.48l768 0c47.146667 0 85.333333-37.546667 85.333333-84.48l0-597.333333c0-47.146667-38.186667-85.333333-85.333333-85.333333zM469.333333 682.666667l170.666667-170.666667-170.666667-170.666667 0 128-426.666667 0 0 85.333333 426.666667 0 0 128z" p-id="1092"></path></svg>