<?xml version="1.0" standalone="no"?><!DOCTYPE svg PUBLIC "-//W3C//DTD SVG 1.1//EN" "http://www.w3.org/Graphics/SVG/1.1/DTD/svg11.dtd"><svg t="1546419205749" class="icon" style="" viewBox="0 0 1024 1024" version="1.1" xmlns="http://www.w3.org/2000/svg" p-id="2362" xmlns:xlink="http://www.w3.org/1999/xlink" width="200" height="200"><defs><style type="text/css"></style></defs><path d="M984.851692 1024h-945.230769a39.384615 39.384615 0 0 1-39.384615-39.384615V39.384615a39.384615 39.384615 0 0 1 39.384615-39.384615h467.574154a39.384615 39.384615 0 0 1 0 78.769231H79.005538v866.461538h866.461539V514.520615a39.384615 39.384615 0 0 1 78.769231 0V984.615385a39.384615 39.384615 0 0 1-39.384616 39.384615z" p-id="2363"></path><path d="M636.928 433.230769L512 558.158769 387.150769 433.230769h249.777231m111.379692-78.769231h-472.615384c-43.323077 0-53.720615 25.048615-23.079385 55.689847l203.697231 203.69723a78.690462 78.690462 0 0 0 111.379692 0l203.697231-203.69723c30.641231-30.641231 20.243692-55.689846-23.079385-55.689847z" p-id="2364"></path></svg>
